<svg xmlns="http://www.w3.org/2000/svg" data-name="Filled Outline" viewBox="0 0 64 64" id="ShoppingBag"><path fill="#ff8c38" d="M56.66,6H27.27L25.94,47.75H58ZM49.2,16a2.6,2.6,0,0,1-1.89.79H36.62a2.69,2.69,0,0,1-1.88-4.59,2.59,2.59,0,0,1,1.88-.79H47.31A2.69,2.69,0,0,1,49.2,16Z" class="colorfb8188 svgShape"></path><path fill="#ff8c38" d="M32.06,6H27.27L25.94,47.74H58l-.3-9.24A36,36,0,0,1,32.06,6Z" class="colorfa616a svgShape"></path><polygon fill="#fed5b7" points="40.73 58 6 58 7.34 14.91 39.4 14.91 40.73 58" class="colorfee5b7 svgShape"></polygon><path fill="#fdb987" d="M11.08,16.37l0-1.46H7.34L6,58H40.74l-.23-7.18A33.68,33.68,0,0,1,11.08,16.37Z" class="colorfdd487 svgShape"></path><ellipse cx="33.13" cy="19.13" fill="#feebdd" rx="1.56" ry="2.09" transform="rotate(-57.3 33.38 19.196)" class="colorfef2dd svgShape"></ellipse><ellipse cx="36.66" cy="21.37" fill="#feebdd" rx=".87" ry="1.16" transform="rotate(-57.63 36.656 21.372)" class="colorfef2dd svgShape"></ellipse><path fill="#352920" d="M46.19,48.75H59L57.63,5H26.3L26,13.91H14.22v2H38.43L39.7,57H7L8.31,15.91H12v-2H6.37L5,59h36.8l-.32-10.25h2.61v-2H41.39l-.9-29h6.82a3.6,3.6,0,0,0,2.6-1.08,3.7,3.7,0,0,0-2.6-6.3H46.09v2h1.22a1.7,1.7,0,0,1,1.17,2.9,1.6,1.6,0,0,1-1.17.48H40.43l-.06-1.86H35a1.69,1.69,0,0,1,.49-1,1.59,1.59,0,0,1,1.16-.48h7.31v-2H36.62A3.58,3.58,0,0,0,34,11.47,3.68,3.68,0,0,0,33,13.91H28L28.24,7H55.69L57,46.75H46.19Z" class="color202c35 svgShape"></path><path fill="#352920" d="M15.69,20.29v4a7.68,7.68,0,1,0,15.36,0v-4h-2v4a5.68,5.68,0,1,1-11.36,0v-4Z" class="color202c35 svgShape"></path></svg>