<svg xmlns="http://www.w3.org/2000/svg" viewBox="0 0 512 512" id="womanshopping"><g data-name="Woman Shopping" fill="#ff8c38" class="color000000 svgShape"><path fill="none" stroke="#383533" stroke-linecap="round" stroke-linejoin="round" stroke-width="2" d="M102 261.63s10.7-47.43 36.26-29.77M417.75 261.63s-10.7-47.43-36.26-29.77" class="colorStroke383333 svgStroke"></path><path fill="#383533" d="M187.29,155s5.53,15.1-7.23,54.2-9.4,65.16,32,71.53,126.35.91,129.91-41.82-13.79-41.52-25.72-117Z" class="color383333 svgShape"></path><path fill="none" stroke="#ffffff" stroke-linecap="round" stroke-linejoin="round" d="M198.82 181.21a44.71 44.71 0 01-5.17 35c-10.89 17.57-10 35.76 3.64 40.91M218.52 204.22s-21.49 18.32-6.5 35M312.61 175.51s-3.19 17.8 7.42 31.2 10.21 33.74-3.53 40.39M298.65 202.43s21.69 25.69 2.6 40.93" class="colorStrokeffffff svgStroke"></path><path fill="#ff8933" d="M127.77 420.62a19.09 19.09 0 014.72 3.15 19.69 19.69 0 015.73 9.88 14.5 14.5 0 013.57-9.16 14.35 14.35 0 017-4.3 13.57 13.57 0 01-6.44-2.72 14 14 0 01-5-8.59 12.49 12.49 0 01-2.15 6.73A12.65 12.65 0 01127.77 420.62zM364 180.56a18.94 18.94 0 014.73 3.15 19.69 19.69 0 015.72 9.88 14.55 14.55 0 013.58-9.16 14.35 14.35 0 017-4.3 13.37 13.37 0 01-6.44-2.72 14 14 0 01-5-8.59 12.22 12.22 0 01-9.6 11.74zM138.48 102.39a24.74 24.74 0 016.18 4.12 25.73 25.73 0 017.49 12.92 19 19 0 014.68-12 18.73 18.73 0 019.18-5.62 17.56 17.56 0 01-8.43-3.56A18.28 18.28 0 01151 87a16.19 16.19 0 01-2.81 8.8A16.47 16.47 0 01138.48 102.39z" class="colorffb833 svgShape"></path><path fill="none" stroke="#ff9c53" stroke-linecap="round" stroke-linejoin="round" d="M164 153.36s-30.76-2.27-28 11.82 26.9 3.63 20 0S130.2 167.9 135.82 180s24.72 10 16.08 3.52S121 193.81 137.36 202M334.92 391.2s30.76-2.28 28 11.82-26.9 3.63-20 0 25.84 2.72 20.22 14.77-24.72 10-16.09 3.52 30.92 10.34 14.55 18.53" class="colorStrokeff535c svgStroke"></path><path fill="#ffad71" d="M201.08,143.72a12.47,12.47,0,0,0-9.24-3.58,9.52,9.52,0,0,0-5.67,2.13c-5.14,4.81-3.17,20,5.72,23.91,5,2.19,10.25,0,12-.8Q202.5,154.55,201.08,143.72Z" class="colorffc871 svgShape"></path><path fill="none" stroke="#383533" stroke-linecap="round" stroke-linejoin="round" stroke-width=".75" d="M188.28,149.05l8.58-.4s-8.73,5.44-1.42,12.49" class="colorStroke383333 svgStroke"></path><path fill="#ffad71" d="M307.24,143.72a12.44,12.44,0,0,1,9.23-3.58,9.52,9.52,0,0,1,5.67,2.13c5.14,4.81,3.18,20-5.72,23.91-5,2.19-10.24,0-12-.8Q305.81,154.55,307.24,143.72Z" class="colorffc871 svgShape"></path><path fill="none" stroke="#383533" stroke-linecap="round" stroke-linejoin="round" stroke-width=".75" d="M320,149.05l-8.58-.4s8.73,5.44,1.43,12.49" class="colorStroke383333 svgStroke"></path><circle cx="253.11" cy="135.3" r="60.72" fill="#ffc499" class="colorffdb99 svgShape"></circle><path fill="#ffc499" d="M274,188.18s-.54,24.07,6.42,33.7,35.3,11.23,41.72,31-23.89,106.1,0,180.27a193.57,193.57,0,0,1-47.07,11.5c-41.87,4.79-75.91-5.28-95-12.72a321.28,321.28,0,0,0,10.16-38.75c7.17-36.43,7.2-66.23,6.06-75.71-5.7-47.65-13.55-70.47-3.56-79.74s44.22-7.85,46.36-18.55,1.42-31,1.42-31S256.91,178.55,274,188.18Z" class="colorffdb99 svgShape"></path><path fill="#ffc499" d="M316.21 136.49c-1 9.75-5.27 39.9-29.27 59.5-5.64 4.6-14.94 12-28.64 13.18-16.71 1.45-29.27-7.25-34.55-10.91-28.8-19.95-31.08-57.91-31.36-64.09C192.39 134.17 275.93 77.45 316.21 136.49zM230.68 225.94c-22 .68-33.9 7.79-40.72 14.15-13.49 12.6-12.75 27.66-25.45 57a230.94 230.94 0 01-20.61 37.58L169.61 361a79.22 79.22 0 0010-6.36c7.58-5.67 23.73-19.89 38.84-70.94A375.55 375.55 0 00230.68 225.94z" class="colorffdb99 svgShape"></path><path fill="#ffc499" d="M157.36,247.36c4.09,22.13,8.39,39.86,11.52,51.82,8.75,33.5,15.51,49.36,7.27,58.49-4.63,5.13-13.19,7.26-19.4,5.46-25.68-7.45-24.25-86.15-23-115.77Z" class="colorffdb99 svgShape"></path><path fill="#ffc499" d="M158.14 251.54a30.83 30.83 0 00-2-8.12 32.56 32.56 0 00-6.51-10.15c-7.26-7.07-13.34-1.38-31.59-7.33-4.72-1.54-11.37-4.22-13.47-1.71a3 3 0 00-.63 1.71c-.32 3.25 3.1 6.49 9 10.51 12.09 8.23 16.07 7.12 18.14 12a20.15 20.15 0 011.4 3.79c1.11 4.45-.66 16.87 1.67 18.55C135.85 272 141.33 269.11 158.14 251.54zM288.69 227.91c22 .68 33.9 7.79 40.72 14.15 13.49 12.6 12.75 27.66 25.45 57a231.71 231.71 0 0020.61 37.58L349.77 363a77.81 77.81 0 01-10-6.36C332.18 351 316 336.75 300.92 285.7A375.55 375.55 0 01288.69 227.91z" class="colorffdb99 svgShape"></path><path fill="#ffc499" d="M362,249.33c-4.09,22.13-8.39,39.86-11.51,51.82-8.76,33.5-15.52,49.36-7.28,58.49,4.63,5.13,13.2,7.26,19.4,5.46,25.68-7.45,24.25-86.15,23-115.77Z" class="colorffdb99 svgShape"></path><path fill="#383533" d="M214.67 138.12a18.76 18.76 0 0110.74-3.51c2.61-.06 6.15-.15 7.24 1.9a2.83 2.83 0 01-.08 2.88c-1.22 1.65-4.3.16-9.28.12-6.55-.06-10.81 2.42-11.24 1.48C211.74 140.31 213.84 138.74 214.67 138.12zM284 137.86a18.72 18.72 0 00-10.81-3.3c-2.61 0-6.15 0-7.2 2a2.86 2.86 0 00.13 2.88c1.26 1.62 4.31.08 9.28-.07 6.56-.19 10.86 2.21 11.28 1.27C287 140 284.84 138.46 284 137.86z" class="color383333 svgShape"></path><path fill="none" stroke="#383533" stroke-linecap="round" stroke-linejoin="round" d="M252.16,152s-4.58,10.6-3.73,12.62,9.09,1.34,9.09,1.34" class="colorStroke383333 svgStroke"></path><path fill="none" stroke="#383533" stroke-linecap="round" stroke-linejoin="round" stroke-width=".75" d="M255.32,184.18s-4.15,1.56-7.51-.06" class="colorStroke383333 svgStroke"></path><ellipse cx="217.3" cy="169.82" fill="#ffad71" rx="4.52" ry="7.26" transform="rotate(-89.02 217.294 169.822)" class="colorffc871 svgShape"></ellipse><ellipse cx="285.34" cy="170.99" fill="#ffad71" rx="4.52" ry="7.26" transform="rotate(-89.02 285.336 170.99)" class="colorffc871 svgShape"></ellipse><path fill="#383533" fill-rule="evenodd" d="M231.05,159.07a5.39,5.39,0,1,1,.48-7.61A5.41,5.41,0,0,1,231.05,159.07Z" class="color383333 svgShape"></path><path fill="#383533" fill-rule="evenodd" d="M218.53,151.42c.12-.1,1.18,1.73,2.54,1.6,1-.1,1.26-1.2,2.53-2.16a6.46,6.46,0,0,1,3.81-1.22,14,14,0,0,1-2.18,3.14c-1.23,1.34-2,2.21-3.11,2.22C219.94,155,218.37,151.55,218.53,151.42Z" class="color383333 svgShape"></path><path fill="#ffffff" d="M262.75,172.58a44.26,44.26,0,0,1-22.33,0,11.54,11.54,0,0,0,22.33,0Z" class="colorffffff svgShape"></path><path fill="none" stroke="#383533" stroke-linecap="round" stroke-linejoin="round" d="M275,204.22A45.53,45.53,0,0,1,240.42,207" class="colorStroke383333 svgStroke"></path><path fill="#ff9c53" d="M238.25,214.51s-1,8-8.49,10-23.32,1.77-37,13.24c0,0,6,19.9,6.43,35.23s-8.42,20.42-5.5,44.42S186,408.76,175.52,431.49c0,0,99.09,42.28,150.91,0,0,0-11.54-83.76-8.42-102.11s4-27.74-.52-40.77,7.44-50.21,7.44-50.21-7-7.7-22.44-10.49-22.88-7.49-23.79-13.4C278.7,214.51,253.4,219.06,238.25,214.51Z" class="colorff535c svgShape"></path><path fill="#cc5600" d="M151.24,391,48,362.43a2.22,2.22,0,0,1-1.35-2.93l38.2-110.7a2.18,2.18,0,0,1,2.57-1.51L176.6,272a2.18,2.18,0,0,1,1.43,2.62L153.9,389.18A2.22,2.22,0,0,1,151.24,391Z" class="color00ccc1 svgShape"></path><path fill="none" stroke="#383533" stroke-linecap="round" stroke-linejoin="round" stroke-width="2" d="M140.51,267.7s16.37-34.42-11.82-39.79" class="colorStroke383333 svgStroke"></path><path fill="#eec7aa" d="M137.29,387.13,34.05,358.57a2.22,2.22,0,0,1-1.35-2.93l38.2-110.7a2.19,2.19,0,0,1,2.58-1.51l89.17,24.67a2.18,2.18,0,0,1,1.43,2.62L140,385.32A2.22,2.22,0,0,1,137.29,387.13Z" class="coloraaeeea svgShape"></path><path fill="#ffc499" d="M361.63,251.54a30.83,30.83,0,0,1,2-8.12,32.56,32.56,0,0,1,6.51-10.15c7.27-7.07,13.34-1.38,31.6-7.33,4.72-1.54,11.36-4.22,13.46-1.71a3,3,0,0,1,.63,1.71c.33,3.25-3.1,6.49-9,10.51-12.09,8.23-16.07,7.12-18.13,12a19.78,19.78,0,0,0-1.41,3.79c-1.1,4.45.66,16.87-1.67,18.55C383.93,272,378.44,269.11,361.63,251.54Z" class="colorffdb99 svgShape"></path><path fill="#ff8c38" d="M371.77,380.8l96.38-26.66a2.08,2.08,0,0,0,1.26-2.73L433.74,248.05a2,2,0,0,0-2.4-1.41l-83.26,23a2,2,0,0,0-1.33,2.44l22.53,107A2.07,2.07,0,0,0,371.77,380.8Z" class="colorff832f svgShape"></path><path fill="none" stroke="#383533" stroke-linecap="round" stroke-linejoin="round" stroke-width="2" d="M379.26,267.7s-16.36-34.42,11.82-39.79" class="colorStroke383333 svgStroke"></path><path fill="#ff8933" d="M384.79,377.2l96.38-26.67a2.06,2.06,0,0,0,1.26-2.73L446.77,244.45a2,2,0,0,0-2.41-1.41l-83.25,23a2,2,0,0,0-1.34,2.44l22.54,107A2.07,2.07,0,0,0,384.79,377.2Z" class="colorffb833 svgShape"></path><path fill="#383533" fill-rule="evenodd" d="M286.18,153c-.12-.1-1.16,1.74-2.52,1.62-1-.09-1.27-1.19-2.55-2.15a6.44,6.44,0,0,0-3.81-1.18,13.88,13.88,0,0,0,2.19,3.12c1.25,1.33,2.05,2.19,3.13,2.2C284.8,156.57,286.34,153.08,286.18,153Z" class="color383333 svgShape"></path><path fill="#383533" fill-rule="evenodd" d="M281.11,152.42a11.25,11.25,0,0,0-6.87-1.57c-4.27.28-8.06,4.51-8.06,5s3.86-2.79,8-2.77,5.38,3.15,8.26,3.49Z" class="color383333 svgShape"></path><path fill="none" stroke="#383533" stroke-linecap="round" stroke-linejoin="round" d="M351.18 298.51s-9.34 24.07-9.25 41.84M171.9 310.42s6.21 18.57 6.19 34.48" class="colorStroke383333 svgStroke"></path><path fill="#383533" d="M251.55,84.35c-15,1.37-23.32,6.67-28.18,11.52-13.75,13.69-10.53,34.24-26.44,43.11a28,28,0,0,1-10.76,3.29c-5.81-22.44,1.34-45.25,17.6-58.93,8.78-7.38,21.64-12.11,40.43-11.19,0,0,37.05-10.45,58,8.19S320,140.93,320,140.93a79.26,79.26,0,0,1-28.78-8.7C264.28,118,254.22,92.07,251.55,84.35Z" class="color383333 svgShape"></path><path fill="#383533" d="M304.4,130.11c.74,3.34,1.38,6.9,1.85,10.68a116.34,116.34,0,0,1-.68,33.19A64.33,64.33,0,0,0,313,159.2a65.22,65.22,0,0,0,3.25-27.5Z" class="color383333 svgShape"></path><path fill="none" stroke="#ffffff" stroke-linecap="round" stroke-linejoin="round" d="M260.79 88.06s23 46.14 51.82 42.05M280.79 101.7s11.42 23.18 35.71 13.64M242.84 80.56s-20.69 2.5-29.55 15.69-7.06 38.89-25 38.31M203.92 105.75s-4.28 21-15.64 21.63" class="colorStrokeffffff svgStroke"></path></g></svg>